<svg xmlns="http://www.w3.org/2000/svg" version="1.1" xmlns:xlink="http://www.w3.org/1999/xlink" xmlns:svgjs="http://svgjs.dev/svgjs" width="2000" height="383" viewBox="0 0 2000 383"><g transform="matrix(1,0,0,1,-1.212094217026788,-0.12939947270768926)"><svg viewBox="0 0 396 76" data-background-color="#ffffff" preserveAspectRatio="xMidYMid meet" height="383" width="2000" xmlns="http://www.w3.org/2000/svg" xmlns:xlink="http://www.w3.org/1999/xlink"><g id="tight-bounds" transform="matrix(1,0,0,1,0.2399946549712979,0.025677179962883656)"><svg viewBox="0 0 395.5199999999999 75.9486456400742" height="75.9486456400742" width="395.5199999999999"><g><svg viewBox="0 0 395.52000000000004 75.94864564007422" height="75.9486456400742" width="395.5199999999999"><g><svg viewBox="0 0 395.52000000000004 75.94864564007422" height="75.94864564007422" width="395.52000000000004"><g id="textblocktransform"><svg viewBox="0 0 395.52000000000004 75.94864564007422" height="75.94864564007422" width="395.52000000000004" id="textblock"><g><svg viewBox="0 0 395.52000000000004 75.94864564007422" height="75.94864564007422" width="395.52000000000004"><g transform="matrix(1,0,0,1,0,0)"><svg width="395.52000000000004" viewBox="2.5 -36.25 197.6130828857422 37.95000076293945" height="75.94864564007422" data-palette-color="#2563eb"><path d="M12.8-22.25Q11.35-19.55 10.93-18 10.5-16.45 10.2-14.3L10.2-14.3Q10.7-14.3 11.85-14.33 13-14.35 13.35-14.4L13.35-14.4 16.2-15Q17.25-15.25 18.05-15.43 18.85-15.6 21-15.95L21-15.95Q21.95-16.1 23.05-16.15 24.15-16.2 24.5-16.2L24.5-16.2Q25.7-16.2 26.3-16.25L26.3-16.25Q27.15-16.25 27.5-15.95L27.5-15.95Q28.95-14.7 28.95-13.8L28.95-13.8Q28.95-13.2 28.5-12.95 28.05-12.7 27.1-12.4L27.1-12.4 22.45-11.4 12.75-8.75Q12.5-8.7 12.28-8.58 12.05-8.45 11.8-8.4L11.8-8.4Q10.2-8.05 9.68-7.83 9.15-7.6 9.03-7.05 8.9-6.5 8.9-4.9L8.9-4.9 8.9-2.9Q8.9-1.55 8.8-0.85L8.8-0.85Q8.5 1.65 6.95 1.65L6.95 1.65Q6.1 1.65 5 1L5 1Q3.75 0.25 3.13-0.68 2.5-1.6 2.5-2.85L2.5-2.85Q2.5-3.3 2.55-3.55L2.55-3.55Q2.95-7.05 3.1-8.75L3.1-8.75Q3.25-10.2 3.5-12.43 3.75-14.65 4.15-17.6L4.15-17.6Q4.8-22.25 7.43-25.8 10.05-29.35 14.35-32.3L14.35-32.3Q18.6-35.25 22.85-36.05L22.85-36.05Q23.7-36.25 24.8-36.25L24.8-36.25Q28.1-36.25 30.45-33.75L30.45-33.75Q31.4-32.8 31.4-32.1L31.4-32.1Q31.4-31.8 31.15-31.3L31.15-31.3Q30.5-30.25 29.35-30.25L29.35-30.25Q28.95-30.25 28.5-30.4L28.5-30.4Q28.25-30.5 27.88-30.6 27.5-30.7 27.3-30.8L27.3-30.8Q26.45-31.4 25.35-31.4L25.35-31.4Q23.85-31.85 22-30.85 20.15-29.85 16.95-27.35L16.95-27.35Q15.25-26.1 14-24.5L14-24.5 12.8-22.25ZM39.1-21.2Q39.25-20.7 39.15-19.65L39.15-19.65 38.55-13.75Q38.8-13.95 39.3-15.18 39.8-16.4 40.25-17.18 40.7-17.95 40.95-18.2L40.95-18.2Q43.3-20.45 46.25-20.9 49.2-21.35 52.75-21.3L52.75-21.3Q53.1-21.3 53.52-21.03 53.95-20.75 53.95-20.58 53.95-20.4 53.65-20.03 53.35-19.65 53.1-19.55L53.1-19.55Q50.1-18.55 47.82-17.25 45.55-15.95 43.9-13.85L43.9-13.85Q40-8.9 39.4-3.65L39.4-3.65Q39.25-2.25 38.55-1.78 37.85-1.3 36.6-1.3L36.6-1.3Q35.2-1.3 34.1-2.5 33-3.7 33-5.15L33-5.15Q33.05-10.45 33.05-21.05L33.05-21.05Q33.05-22.5 33.7-23.08 34.35-23.65 36.05-23.65L36.05-23.65Q37.3-23.65 38.17-22.95 39.05-22.25 39.1-21.2L39.1-21.2ZM59.15-23.3Q59.05-23 58.42-22.65 57.8-22.3 57.4-22L57.4-22 56-22.75Q53.95-23.85 53.2-24.5L53.2-24.5Q52.8-24.8 52.8-25.25L52.8-25.25Q52.8-25.55 53.02-25.78 53.25-26 53.7-26L53.7-26Q55.65-26 58.45-25L58.45-25Q58.75-24.95 59-24.33 59.25-23.7 59.15-23.3L59.15-23.3ZM54.65-14Q54.8-14.65 54.85-14.95 54.9-15.25 54.9-15.6L54.9-15.6Q54.9-16.3 55.32-16.7 55.75-17.1 56.95-17.1L56.95-17.1Q58.35-17.1 59.42-16.23 60.5-15.35 60.75-13.95L60.75-13.95Q60.9-13.25 60.95-12.4 61-11.55 61-11.3L61-11.3 61.7-2.75Q61.85-1.4 61.32-0.68 60.8 0.05 59.35 0.05L59.35 0.05Q58.1 0.05 57.22-0.65 56.35-1.35 56.15-2.45L56.15-2.45 54.85-13.05 54.65-14ZM75.04-7.8Q74.54-7.5 73.59-7.5L73.59-7.5Q73.24-7.5 72.74-7.55 72.24-7.6 71.89-7.55L71.89-7.55Q72.29-5.9 73.79-4.88 75.29-3.85 77.14-3.85L77.14-3.85Q78.74-3.85 79.99-4.55L79.99-4.55Q81.84-5.5 83.19-6.8L83.19-6.8Q84.14-7.75 84.99-7.75L84.99-7.75Q85.54-7.75 85.94-7.2L85.94-7.2Q86.34-6.55 86.34-5.6L86.34-5.6Q86.34-4.6 85.94-4.05L85.94-4.05Q84.64-2.05 82.57-1.3 80.49-0.55 77.74-0.55L77.74-0.55Q74.89-0.55 72.24-1.8 69.59-3.05 67.72-5.23 65.84-7.4 65.24-10.05L65.24-10.05Q64.84-11.6 64.84-13.1L64.84-13.1Q64.84-15.45 66.17-16.9 67.49-18.35 70.44-19.65L70.44-19.65Q73.14-20.8 75.44-20.8L75.44-20.8Q77.09-20.8 78.64-20.3L78.64-20.3Q83.44-18.8 83.44-16.2L83.44-16.2Q83.44-14.55 81.49-12.2L81.49-12.2Q80.54-11.1 79.24-10.25 77.94-9.4 76.72-8.72 75.49-8.05 75.04-7.8L75.04-7.8ZM77.14-17.05Q77.09-17.3 76.77-17.48 76.44-17.65 76.39-17.7L76.39-17.7Q75.04-17.8 73.64-16.93 72.24-16.05 71.32-14.7 70.39-13.35 70.39-12.1L70.39-12.1 70.44-11.7Q70.49-11.5 70.97-11.2 71.44-10.9 71.54-11L71.54-11Q75.09-13.65 76.89-15.25L76.89-15.25Q77.19-15.55 77.19-16.35L77.19-16.35Q77.19-16.85 77.14-17.05L77.14-17.05ZM97.34-18.85Q97.34-18.55 97.24-18.07 97.14-17.6 97.19-17.45L97.19-17.45Q100.64-18.2 103.04-18.2L103.04-18.2Q106.79-18.2 108.69-14.6L108.69-14.6Q110.24-11.55 110.24-7.85L110.24-7.85Q110.24-6.9 110.04-5.1L110.04-5.1Q109.89-3.9 109.09-3.18 108.29-2.45 107.19-2.45L107.19-2.45Q106.04-2.45 105.57-2.88 105.09-3.3 105.02-3.85 104.94-4.4 104.94-5.6L104.94-5.6 104.89-6.65Q104.79-9.65 104.49-11.85L104.49-11.85Q104.34-12.75 103.82-13.13 103.29-13.5 102.44-13.5L102.44-13.5Q101.64-13.5 100.54-13.25L100.54-13.25Q98.84-12.8 98.27-12.55 97.69-12.3 96.59-11.5L96.59-11.5Q96.24-11.25 96.09-10.5 95.94-9.75 95.94-9.65L95.94-9.65Q95.29-6.45 94.54-2L94.54-2Q94.49-1.8 94.34-1.05 94.19-0.3 93.77 0.03 93.34 0.35 92.54 0.25L92.54 0.25Q89.39-0.15 89.34-2.4L89.34-2.4Q89.29-5.3 89.79-9.25L89.79-9.25Q90.14-12.1 90.44-13.85L90.44-13.85Q90.54-14.65 90.72-15.8 90.89-16.95 91.04-18.45L91.04-18.45Q91.19-19.6 91.34-20.15 91.49-20.7 92.04-21.08 92.59-21.45 93.74-21.45L93.74-21.45Q95.19-21.45 96.14-20.8 97.09-20.15 97.34-18.95L97.34-18.95 97.34-18.85ZM134.19-5.85Q134.29-5 134.94-3.65L134.94-3.65Q135.04-3.4 135.16-3.1 135.29-2.8 135.44-2.4L135.44-2.4Q133.74-1.45 132.74-1.45L132.74-1.45Q131.99-1.45 131.34-1.93 130.69-2.4 129.89-3.45L129.89-3.45Q129.29-4.15 128.89-4.15L128.89-4.15Q128.49-4.15 128.04-3.5L128.04-3.5Q127.04-2 125.56-1.25 124.09-0.5 122.44-0.5L122.44-0.5Q120.59-0.5 118.86-1.38 117.14-2.25 116.19-3.75L116.19-3.75Q115.19-5.3 115.19-8.35L115.19-8.35Q115.19-10.55 115.79-12.8 116.39-15.05 117.49-16.5L117.49-16.5Q118.69-18.15 120.34-19.13 121.99-20.1 123.99-20.1L123.99-20.1Q124.64-20.1 124.99-20.05L124.99-20.05Q125.14-20 125.44-20L125.44-20Q126.59-20 126.59-21.1L126.59-21.1 126.54-21.5Q125.84-27.25 125.29-29.95L125.29-29.95Q125.24-30.2 125.14-30.75 125.04-31.3 125.04-31.65L125.04-31.65Q125.04-32.35 125.34-32.88 125.64-33.4 126.39-33.75L126.39-33.75Q126.69-33.9 127.09-33.9L127.09-33.9Q128.14-33.9 129.29-33.23 130.44-32.55 130.64-31.7L130.64-31.7Q131.39-28.6 132.04-23.65L132.04-23.65 132.94-16.05Q133.74-9.25 134.19-5.85L134.19-5.85ZM120.84-12.1Q119.99-9.65 119.99-7.6L119.99-7.6Q119.99-4.75 121.99-3.4L121.99-3.4Q122.79-3.85 123.26-4.42 123.74-5 124.39-6.1L124.39-6.1 124.94-7.05Q126.09-8.7 126.46-10.75 126.84-12.8 126.94-15.95L126.94-15.95Q126.99-16.4 126.76-16.98 126.54-17.55 126.29-17.6L126.29-17.6Q125.89-17.7 124.94-17.38 123.99-17.05 123.74-16.7L123.74-16.7Q122.59-15.35 121.91-14.35 121.24-13.35 120.84-12.1L120.84-12.1ZM144.69 1.1Q140.49 1.1 139.34-2.5L139.34-2.5Q139.74-2.5 140.41-2.48 141.09-2.45 141.54-2.35L141.54-2.35Q142.24-2.25 142.54-2.25L142.54-2.25Q144.79-2.25 146.29-4.25L146.29-4.25Q147.34-5.7 147.34-7.2L147.34-7.2Q147.34-8.2 146.84-9.15L146.84-9.15Q145.74-11.1 144.14-13.45L144.14-13.45Q143.09-15 142.24-16.4L142.24-16.4Q141.24-18 141.24-19.95L141.24-19.95Q141.24-21.75 142.26-23.13 143.29-24.5 145.29-24.85L145.29-24.85 146.89-25.15Q149.49-25.65 150.79-25.65L150.79-25.65Q152.94-25.65 154.59-24.65L154.59-24.65Q154.94-24.4 155.31-23.78 155.69-23.15 155.89-22.8L155.89-22.8Q155.54-22.65 154.91-22.33 154.29-22 153.84-21.95L153.84-21.95Q153.14-21.85 151.74-21.85L151.74-21.85Q150.39-21.85 149.69-21.8L149.69-21.8Q148.09-21.65 147.16-20.73 146.24-19.8 146.24-18.5L146.24-18.5Q146.24-17.5 146.84-16.45L146.84-16.45Q148.19-14.2 150.59-11.3L150.59-11.3Q152.39-9.05 152.39-6.65L152.39-6.65Q152.39-5.35 151.79-3.9L151.79-3.9Q149.74 1.1 144.69 1.1L144.69 1.1ZM163.53-0.8Q163.23 0.2 162.41 0.95 161.58 1.7 160.73 1.7L160.73 1.7Q159.58 1.65 158.51 0.6 157.43-0.45 157.43-1.7L157.43-1.7Q157.43-2.3 157.81-2.75 158.18-3.2 158.88-3.65L158.88-3.65Q159.33-3.95 159.33-3.95L159.33-3.95Q159.43-4.05 159.78-4.4 160.13-4.75 160.46-4.93 160.78-5.1 161.08-5.1L161.08-5.1Q161.53-5.1 162.03-4.75L162.03-4.75Q162.68-4.35 163.16-3.33 163.63-2.3 163.63-1.4L163.63-1.4Q163.63-1.2 163.53-0.8L163.53-0.8ZM183.88-2.55Q183.43-2.75 182.98-2.75L182.98-2.75Q182.53-2.75 182.21-2.53 181.88-2.3 181.48-1.85L181.48-1.85Q180.88-1.25 180.23-0.85L180.23-0.85Q179.63-0.5 178.03-0.2L178.03-0.2Q177.33-0.1 176.88-0.1L176.88-0.1Q174.78-0.1 172.51-1.03 170.23-1.95 169.28-3.25L169.28-3.25Q168.28-4.65 168.33-6.25L168.33-6.25Q168.38-8.65 170.33-11.05L170.33-11.05Q172.23-13.35 173.81-14.3 175.38-15.25 178.13-15.5L178.13-15.5Q178.73-15.5 179.86-15.7 180.98-15.9 180.98-16.25L180.98-16.25Q180.98-16.95 180.36-17.53 179.73-18.1 177.83-18.1L177.83-18.1Q177.13-18.1 175.73-18L175.73-18Q174.33-17.9 173.78-17.9L173.78-17.9Q172.08-17.9 171.33-18.45L171.33-18.45Q171.13-18.55 171.13-19.4L171.13-19.4Q171.13-20.9 172.18-21.3L172.18-21.3Q174.33-22.1 176.63-22.15L176.63-22.15Q179.53-22.15 182.01-20.88 184.48-19.6 185.63-17.7L185.63-17.7Q186.78-15.8 187.13-12.45L187.13-12.45Q187.53-8.7 187.53-2.9L187.53-2.9Q187.53-1.3 187.08-1.05L187.08-1.05Q186.68-0.8 186.33-0.8L186.33-0.8Q185.88-0.8 185.51-1.07 185.13-1.35 184.68-1.85L184.68-1.85Q184.23-2.4 183.88-2.55L183.88-2.55ZM175.98-3.15Q178.33-3.85 180.58-5.4L180.58-5.4Q181.08-5.75 181.48-6.3 181.88-6.85 181.98-7L181.98-7Q182.08-7.15 182.16-7.88 182.23-8.6 182.18-9.05L182.18-9.05Q182.13-9.2 182.01-9.85 181.88-10.5 181.63-11L181.63-11Q181.38-11.4 180.83-11.75 180.28-12.1 179.83-12.05L179.83-12.05Q178.88-12 177.78-11.35 176.68-10.7 175.73-9.6L175.73-9.6Q174.78-8.45 174.26-7.28 173.73-6.1 173.73-5.1L173.73-5.1Q173.83-3.75 174.48-3.3L174.48-3.3Q174.83-3.05 175.33-3.05L175.33-3.05Q175.73-3.05 175.98-3.15L175.98-3.15ZM197.53-23.3Q197.43-23 196.8-22.65 196.18-22.3 195.78-22L195.78-22 194.38-22.75Q192.33-23.85 191.58-24.5L191.58-24.5Q191.18-24.8 191.18-25.25L191.18-25.25Q191.18-25.55 191.4-25.78 191.63-26 192.08-26L192.08-26Q194.03-26 196.83-25L196.83-25Q197.13-24.95 197.38-24.33 197.63-23.7 197.53-23.3L197.53-23.3ZM193.03-14Q193.18-14.65 193.23-14.95 193.28-15.25 193.28-15.6L193.28-15.6Q193.28-16.3 193.7-16.7 194.13-17.1 195.33-17.1L195.33-17.1Q196.73-17.1 197.8-16.23 198.88-15.35 199.13-13.95L199.13-13.95Q199.28-13.25 199.33-12.4 199.38-11.55 199.38-11.3L199.38-11.3 200.08-2.75Q200.23-1.4 199.7-0.68 199.18 0.05 197.73 0.05L197.73 0.05Q196.48 0.05 195.6-0.65 194.73-1.35 194.53-2.45L194.53-2.45 193.23-13.05 193.03-14Z" opacity="1" transform="matrix(1,0,0,1,0,0)" fill="#2563eb" class="wordmark-text-0" data-fill-palette-color="primary" id="text-0"></path></svg></g></svg></g></svg></g></svg></g><g></g></svg></g><defs></defs></svg><rect width="395.5199999999999" height="75.9486456400742" fill="none" stroke="none" visibility="hidden"></rect></g></svg></g></svg>